<svg xmlns="http://www.w3.org/2000/svg" viewBox="0 0 32 32" fill="none">
  <rect width="32" height="32" rx="8" fill="#050505" />
  <rect
    x="0.5"
    y="0.5"
    width="31"
    height="31"
    rx="7.5"
    stroke="#a855f7"
    stroke-opacity="0.55"
    stroke-width="1"
  />
  <g transform="translate(4 4)">
    <path
      fill="#f97316"
      d="M8.5 14.5A2.5 2.5 0 0 0 11 12c0-1.38-.5-2-1-3-1.072-2.143-.224-4.054 2-6 .5 2.5 2 4.9 4 6.5 2 1.6 3 3.5 3 5.5a7 7 0 1 1-14 0c0-1.153.433-2.294 1-3a2.5 2.5 0 0 0 2.5 2.5z"
    />
  </g>
</svg>
